STARTFONT 2.1
FONT -FontForge-Everyday_Typical_Original-Book-R-Normal--7-70-75-75-P-52-ISO10646-1
SIZE 7 75 75
FONTBOUNDINGBOX 9 9 0 2
COMMENT "Generated by fontforge, http://fontforge.sourceforge.net"
STARTPROPERTIES 38
FOUNDRY "FontForge"
FAMILY_NAME "Everyday_Typical_Original"
WEIGHT_NAME "Book"
SLANT "R"
SETWIDTH_NAME "Normal"
ADD_STYLE_NAME ""
PIXEL_SIZE 7
POINT_SIZE 70
RESOLUTION_X 75
RESOLUTION_Y 75
SPACING "P"
AVERAGE_WIDTH 52
CHARSET_REGISTRY "ISO10646"
CHARSET_ENCODING "1"
FONTNAME_REGISTRY ""
CHARSET_COLLECTIONS "ISO10646-1"
FONT_NAME "Everyday_Typical_Original"
FACE_NAME "Everyday_Typical_Original Regular"
FONT_VERSION "1.0"
FONT_ASCENT 5
FONT_DESCENT 2
UNDERLINE_POSITION 1
UNDERLINE_THICKNESS 1
X_HEIGHT 8
CAP_HEIGHT 10
RAW_ASCENT 799
RAW_DESCENT 200
NORM_SPACE 5
RELATIVE_WEIGHT 40
RELATIVE_SETWIDTH 50
SUPERSCRIPT_X 0
SUPERSCRIPT_Y 3
SUPERSCRIPT_SIZE 3
SUBSCRIPT_X 0
SUBSCRIPT_Y -1
SUBSCRIPT_SIZE 3
AVG_LOWERCASE_WIDTH 50
AVG_UPPERCASE_WIDTH 61
ENDPROPERTIES
CHARS 98
STARTCHAR uni000D
ENCODING 13
SWIDTH 142 0
DWIDTH 1 0
BBX 1 1 0 0
BITMAP
00
ENDCHAR
STARTCHAR space
ENCODING 32
SWIDTH 714 0
DWIDTH 5 0
BBX 1 1 0 0
BITMAP
00
ENDCHAR
STARTCHAR exclam
ENCODING 33
SWIDTH 285 0
DWIDTH 2 0
BBX 1 7 0 4
BITMAP
80
80
80
80
80
00
80
ENDCHAR
STARTCHAR quotedbl
ENCODING 34
SWIDTH 571 0
DWIDTH 4 0
BBX 3 2 0 9
BITMAP
A0
A0
ENDCHAR
STARTCHAR numbersign
ENCODING 35
SWIDTH 1000 0
DWIDTH 7 0
BBX 6 6 0 4
BITMAP
48
FC
48
48
FC
48
ENDCHAR
STARTCHAR dollar
ENCODING 36
SWIDTH 857 0
DWIDTH 6 0
BBX 5 8 0 3
BITMAP
20
78
A0
70
28
28
F0
20
ENDCHAR
STARTCHAR percent
ENCODING 37
SWIDTH 1000 0
DWIDTH 7 0
BBX 6 6 0 4
BITMAP
84
08
10
20
40
84
ENDCHAR
STARTCHAR ampersand
ENCODING 38
SWIDTH 1000 0
DWIDTH 7 0
BBX 6 7 0 4
BITMAP
40
A0
A0
64
94
88
70
ENDCHAR
STARTCHAR quotesingle
ENCODING 39
SWIDTH 285 0
DWIDTH 2 0
BBX 1 2 0 9
BITMAP
80
80
ENDCHAR
STARTCHAR parenleft
ENCODING 40
SWIDTH 571 0
DWIDTH 4 0
BBX 3 9 0 2
BITMAP
20
40
80
80
80
80
80
40
20
ENDCHAR
STARTCHAR parenright
ENCODING 41
SWIDTH 571 0
DWIDTH 4 0
BBX 3 9 0 2
BITMAP
80
40
20
20
20
20
20
40
80
ENDCHAR
STARTCHAR asterisk
ENCODING 42
SWIDTH 857 0
DWIDTH 6 0
BBX 5 5 0 5
BITMAP
20
A8
70
A8
20
ENDCHAR
STARTCHAR plus
ENCODING 43
SWIDTH 857 0
DWIDTH 6 0
BBX 5 5 0 5
BITMAP
20
20
F8
20
20
ENDCHAR
STARTCHAR comma
ENCODING 44
SWIDTH 428 0
DWIDTH 3 0
BBX 2 2 0 3
BITMAP
40
80
ENDCHAR
STARTCHAR hyphen
ENCODING 45
SWIDTH 857 0
DWIDTH 6 0
BBX 5 1 0 7
BITMAP
F8
ENDCHAR
STARTCHAR period
ENCODING 46
SWIDTH 285 0
DWIDTH 2 0
BBX 1 1 0 4
BITMAP
80
ENDCHAR
STARTCHAR slash
ENCODING 47
SWIDTH 571 0
DWIDTH 4 0
BBX 3 7 0 4
BITMAP
20
20
40
40
40
80
80
ENDCHAR
STARTCHAR zero
ENCODING 48
SWIDTH 857 0
DWIDTH 6 0
BBX 5 7 0 4
BITMAP
70
88
98
A8
C8
88
70
ENDCHAR
STARTCHAR one
ENCODING 49
SWIDTH 571 0
DWIDTH 4 0
BBX 3 7 0 4
BITMAP
40
C0
40
40
40
40
E0
ENDCHAR
STARTCHAR two
ENCODING 50
SWIDTH 857 0
DWIDTH 6 0
BBX 5 7 0 4
BITMAP
70
88
08
70
80
88
F8
ENDCHAR
STARTCHAR three
ENCODING 51
SWIDTH 857 0
DWIDTH 6 0
BBX 5 7 0 4
BITMAP
70
88
08
30
08
88
70
ENDCHAR
STARTCHAR four
ENCODING 52
SWIDTH 857 0
DWIDTH 6 0
BBX 5 7 0 4
BITMAP
88
88
88
88
F8
08
08
ENDCHAR
STARTCHAR five
ENCODING 53
SWIDTH 857 0
DWIDTH 6 0
BBX 5 7 0 4
BITMAP
F8
88
80
F0
08
88
F0
ENDCHAR
STARTCHAR six
ENCODING 54
SWIDTH 857 0
DWIDTH 6 0
BBX 5 7 0 4
BITMAP
70
80
F0
88
88
88
70
ENDCHAR
STARTCHAR seven
ENCODING 55
SWIDTH 857 0
DWIDTH 6 0
BBX 5 7 0 4
BITMAP
F8
88
08
10
10
20
20
ENDCHAR
STARTCHAR eight
ENCODING 56
SWIDTH 857 0
DWIDTH 6 0
BBX 5 7 0 4
BITMAP
70
88
88
70
88
88
70
ENDCHAR
STARTCHAR nine
ENCODING 57
SWIDTH 857 0
DWIDTH 6 0
BBX 5 7 0 4
BITMAP
70
88
88
88
78
08
70
ENDCHAR
STARTCHAR colon
ENCODING 58
SWIDTH 285 0
DWIDTH 2 0
BBX 1 6 0 4
BITMAP
80
00
00
00
00
80
ENDCHAR
STARTCHAR semicolon
ENCODING 59
SWIDTH 428 0
DWIDTH 3 0
BBX 2 7 0 3
BITMAP
40
00
00
00
00
40
80
ENDCHAR
STARTCHAR less
ENCODING 60
SWIDTH 857 0
DWIDTH 6 0
BBX 5 5 0 5
BITMAP
18
60
80
60
18
ENDCHAR
STARTCHAR equal
ENCODING 61
SWIDTH 857 0
DWIDTH 6 0
BBX 5 4 0 5
BITMAP
F8
00
00
F8
ENDCHAR
STARTCHAR greater
ENCODING 62
SWIDTH 857 0
DWIDTH 6 0
BBX 5 5 0 5
BITMAP
C0
30
08
30
C0
ENDCHAR
STARTCHAR question
ENCODING 63
SWIDTH 857 0
DWIDTH 6 0
BBX 5 7 0 4
BITMAP
70
88
08
10
20
00
20
ENDCHAR
STARTCHAR at
ENCODING 64
SWIDTH 1000 0
DWIDTH 7 0
BBX 6 7 0 4
BITMAP
78
84
B4
A4
BC
80
7C
ENDCHAR
STARTCHAR A
ENCODING 65
SWIDTH 857 0
DWIDTH 6 0
BBX 5 7 0 4
BITMAP
70
88
88
88
F8
88
88
ENDCHAR
STARTCHAR B
ENCODING 66
SWIDTH 857 0
DWIDTH 6 0
BBX 5 7 0 4
BITMAP
F0
88
88
F0
88
88
F0
ENDCHAR
STARTCHAR C
ENCODING 67
SWIDTH 857 0
DWIDTH 6 0
BBX 5 7 0 4
BITMAP
70
88
80
80
80
88
70
ENDCHAR
STARTCHAR D
ENCODING 68
SWIDTH 857 0
DWIDTH 6 0
BBX 5 7 0 4
BITMAP
F0
88
88
88
88
88
F0
ENDCHAR
STARTCHAR E
ENCODING 69
SWIDTH 857 0
DWIDTH 6 0
BBX 5 7 0 4
BITMAP
F8
80
80
F0
80
80
F8
ENDCHAR
STARTCHAR F
ENCODING 70
SWIDTH 857 0
DWIDTH 6 0
BBX 5 7 0 4
BITMAP
F8
80
80
F0
80
80
80
ENDCHAR
STARTCHAR G
ENCODING 71
SWIDTH 857 0
DWIDTH 6 0
BBX 5 7 0 4
BITMAP
70
88
80
B8
88
88
70
ENDCHAR
STARTCHAR H
ENCODING 72
SWIDTH 857 0
DWIDTH 6 0
BBX 5 7 0 4
BITMAP
88
88
88
F8
88
88
88
ENDCHAR
STARTCHAR I
ENCODING 73
SWIDTH 571 0
DWIDTH 4 0
BBX 3 7 0 4
BITMAP
E0
40
40
40
40
40
E0
ENDCHAR
STARTCHAR J
ENCODING 74
SWIDTH 857 0
DWIDTH 6 0
BBX 5 7 0 4
BITMAP
78
08
08
08
08
88
70
ENDCHAR
STARTCHAR K
ENCODING 75
SWIDTH 857 0
DWIDTH 6 0
BBX 5 7 0 4
BITMAP
88
88
90
E0
90
88
88
ENDCHAR
STARTCHAR L
ENCODING 76
SWIDTH 714 0
DWIDTH 5 0
BBX 4 7 0 4
BITMAP
80
80
80
80
80
80
70
ENDCHAR
STARTCHAR M
ENCODING 77
SWIDTH 1428 0
DWIDTH 10 0
BBX 9 7 0 4
BITMAP
FF00
8880
8880
8880
8880
8880
8080
ENDCHAR
STARTCHAR N
ENCODING 78
SWIDTH 857 0
DWIDTH 6 0
BBX 5 7 0 4
BITMAP
F0
88
88
88
88
88
88
ENDCHAR
STARTCHAR O
ENCODING 79
SWIDTH 857 0
DWIDTH 6 0
BBX 5 7 0 4
BITMAP
70
88
88
88
88
88
70
ENDCHAR
STARTCHAR P
ENCODING 80
SWIDTH 857 0
DWIDTH 6 0
BBX 5 7 0 4
BITMAP
F0
88
88
88
F0
80
80
ENDCHAR
STARTCHAR Q
ENCODING 81
SWIDTH 857 0
DWIDTH 6 0
BBX 5 7 0 4
BITMAP
70
88
88
88
A8
90
68
ENDCHAR
STARTCHAR R
ENCODING 82
SWIDTH 857 0
DWIDTH 6 0
BBX 5 7 0 4
BITMAP
F0
88
88
88
F0
90
88
ENDCHAR
STARTCHAR S
ENCODING 83
SWIDTH 857 0
DWIDTH 6 0
BBX 5 7 0 4
BITMAP
70
88
80
70
08
88
70
ENDCHAR
STARTCHAR T
ENCODING 84
SWIDTH 857 0
DWIDTH 6 0
BBX 5 7 0 4
BITMAP
F8
20
20
20
20
20
20
ENDCHAR
STARTCHAR U
ENCODING 85
SWIDTH 857 0
DWIDTH 6 0
BBX 5 7 0 4
BITMAP
88
88
88
88
88
88
78
ENDCHAR
STARTCHAR V
ENCODING 86
SWIDTH 857 0
DWIDTH 6 0
BBX 5 7 0 4
BITMAP
88
88
88
50
50
20
20
ENDCHAR
STARTCHAR W
ENCODING 87
SWIDTH 1428 0
DWIDTH 10 0
BBX 9 7 0 4
BITMAP
8080
8880
8880
8880
8880
8880
7700
ENDCHAR
STARTCHAR X
ENCODING 88
SWIDTH 857 0
DWIDTH 6 0
BBX 5 7 0 4
BITMAP
88
88
88
70
88
88
88
ENDCHAR
STARTCHAR Y
ENCODING 89
SWIDTH 857 0
DWIDTH 6 0
BBX 5 7 0 4
BITMAP
88
88
88
50
20
20
20
ENDCHAR
STARTCHAR Z
ENCODING 90
SWIDTH 857 0
DWIDTH 6 0
BBX 5 7 0 4
BITMAP
F8
88
10
20
40
88
F8
ENDCHAR
STARTCHAR bracketleft
ENCODING 91
SWIDTH 571 0
DWIDTH 4 0
BBX 3 9 0 2
BITMAP
E0
80
80
80
80
80
80
80
E0
ENDCHAR
STARTCHAR backslash
ENCODING 92
SWIDTH 571 0
DWIDTH 4 0
BBX 3 7 0 4
BITMAP
80
80
40
40
40
20
20
ENDCHAR
STARTCHAR bracketright
ENCODING 93
SWIDTH 571 0
DWIDTH 4 0
BBX 3 9 0 2
BITMAP
E0
20
20
20
20
20
20
20
E0
ENDCHAR
STARTCHAR asciicircum
ENCODING 94
SWIDTH 857 0
DWIDTH 6 0
BBX 5 3 0 8
BITMAP
20
50
88
ENDCHAR
STARTCHAR underscore
ENCODING 95
SWIDTH 1142 0
DWIDTH 8 0
BBX 7 1 0 3
BITMAP
FE
ENDCHAR
STARTCHAR grave
ENCODING 96
SWIDTH 428 0
DWIDTH 3 0
BBX 2 2 0 9
BITMAP
80
40
ENDCHAR
STARTCHAR a
ENCODING 97
SWIDTH 714 0
DWIDTH 5 0
BBX 4 5 0 4
BITMAP
60
10
70
90
70
ENDCHAR
STARTCHAR b
ENCODING 98
SWIDTH 714 0
DWIDTH 5 0
BBX 4 7 0 4
BITMAP
80
80
E0
90
90
90
E0
ENDCHAR
STARTCHAR c
ENCODING 99
SWIDTH 714 0
DWIDTH 5 0
BBX 4 5 0 4
BITMAP
60
80
80
80
70
ENDCHAR
STARTCHAR d
ENCODING 100
SWIDTH 714 0
DWIDTH 5 0
BBX 4 7 0 4
BITMAP
10
10
70
90
90
90
70
ENDCHAR
STARTCHAR e
ENCODING 101
SWIDTH 714 0
DWIDTH 5 0
BBX 4 5 0 4
BITMAP
60
90
F0
80
70
ENDCHAR
STARTCHAR f
ENCODING 102
SWIDTH 571 0
DWIDTH 4 0
BBX 3 7 0 4
BITMAP
60
80
80
C0
80
80
80
ENDCHAR
STARTCHAR g
ENCODING 103
SWIDTH 714 0
DWIDTH 5 0
BBX 4 7 0 2
BITMAP
60
90
90
90
70
10
60
ENDCHAR
STARTCHAR h
ENCODING 104
SWIDTH 714 0
DWIDTH 5 0
BBX 4 7 0 4
BITMAP
80
80
E0
90
90
90
90
ENDCHAR
STARTCHAR i
ENCODING 105
SWIDTH 285 0
DWIDTH 2 0
BBX 1 7 0 4
BITMAP
80
00
80
80
80
80
80
ENDCHAR
STARTCHAR j
ENCODING 106
SWIDTH 714 0
DWIDTH 5 0
BBX 4 9 0 2
BITMAP
10
00
10
10
10
10
10
90
60
ENDCHAR
STARTCHAR k
ENCODING 107
SWIDTH 714 0
DWIDTH 5 0
BBX 4 7 0 4
BITMAP
80
80
90
A0
C0
A0
90
ENDCHAR
STARTCHAR l
ENCODING 108
SWIDTH 428 0
DWIDTH 3 0
BBX 2 7 0 4
BITMAP
80
80
80
80
80
80
40
ENDCHAR
STARTCHAR m
ENCODING 109
SWIDTH 1142 0
DWIDTH 8 0
BBX 7 5 0 4
BITMAP
6C
92
92
92
82
ENDCHAR
STARTCHAR n
ENCODING 110
SWIDTH 714 0
DWIDTH 5 0
BBX 4 5 0 4
BITMAP
E0
90
90
90
90
ENDCHAR
STARTCHAR o
ENCODING 111
SWIDTH 714 0
DWIDTH 5 0
BBX 4 5 0 4
BITMAP
60
90
90
90
60
ENDCHAR
STARTCHAR p
ENCODING 112
SWIDTH 714 0
DWIDTH 5 0
BBX 4 7 0 2
BITMAP
E0
90
90
90
E0
80
80
ENDCHAR
STARTCHAR q
ENCODING 113
SWIDTH 714 0
DWIDTH 5 0
BBX 4 7 0 2
BITMAP
70
90
90
90
70
10
10
ENDCHAR
STARTCHAR r
ENCODING 114
SWIDTH 714 0
DWIDTH 5 0
BBX 4 5 0 4
BITMAP
60
90
80
80
80
ENDCHAR
STARTCHAR s
ENCODING 115
SWIDTH 714 0
DWIDTH 5 0
BBX 4 5 0 4
BITMAP
70
80
60
10
E0
ENDCHAR
STARTCHAR t
ENCODING 116
SWIDTH 571 0
DWIDTH 4 0
BBX 3 7 0 4
BITMAP
80
80
C0
80
80
80
60
ENDCHAR
STARTCHAR u
ENCODING 117
SWIDTH 714 0
DWIDTH 5 0
BBX 4 5 0 4
BITMAP
90
90
90
90
70
ENDCHAR
STARTCHAR v
ENCODING 118
SWIDTH 857 0
DWIDTH 6 0
BBX 5 5 0 4
BITMAP
88
88
50
50
20
ENDCHAR
STARTCHAR w
ENCODING 119
SWIDTH 1142 0
DWIDTH 8 0
BBX 7 5 0 4
BITMAP
82
92
92
92
6C
ENDCHAR
STARTCHAR x
ENCODING 120
SWIDTH 714 0
DWIDTH 5 0
BBX 4 5 0 4
BITMAP
90
90
60
90
90
ENDCHAR
STARTCHAR y
ENCODING 121
SWIDTH 714 0
DWIDTH 5 0
BBX 4 7 0 2
BITMAP
90
90
90
90
70
10
E0
ENDCHAR
STARTCHAR z
ENCODING 122
SWIDTH 714 0
DWIDTH 5 0
BBX 4 5 0 4
BITMAP
F0
20
40
80
F0
ENDCHAR
STARTCHAR braceleft
ENCODING 123
SWIDTH 714 0
DWIDTH 5 0
BBX 4 9 0 2
BITMAP
30
40
40
40
80
40
40
40
30
ENDCHAR
STARTCHAR bar
ENCODING 124
SWIDTH 285 0
DWIDTH 2 0
BBX 1 9 0 2
BITMAP
80
80
80
80
80
80
80
80
80
ENDCHAR
STARTCHAR braceright
ENCODING 125
SWIDTH 714 0
DWIDTH 5 0
BBX 4 9 0 2
BITMAP
C0
20
20
20
10
20
20
20
C0
ENDCHAR
STARTCHAR asciitilde
ENCODING 126
SWIDTH 1142 0
DWIDTH 8 0
BBX 7 3 0 8
BITMAP
62
92
8C
ENDCHAR
STARTCHAR uni220E
ENCODING 8718
SWIDTH 857 0
DWIDTH 6 0
BBX 5 7 0 4
BITMAP
F8
F8
F8
F8
F8
F8
F8
ENDCHAR
STARTCHAR .notdef
ENCODING -1
SWIDTH 142 0
DWIDTH 1 0
BBX 1 1 0 0
BITMAP
00
ENDCHAR
ENDFONT
